<?xml version="1.0" encoding="UTF-8" standalone="no"?>
<!-- Created with Inkscape (http://www.inkscape.org/) -->

<svg
   xmlns:dc="http://purl.org/dc/elements/1.1/"
   xmlns:cc="http://creativecommons.org/ns#"
   xmlns:rdf="http://www.w3.org/1999/02/22-rdf-syntax-ns#"
   xmlns:svg="http://www.w3.org/2000/svg"
   xmlns="http://www.w3.org/2000/svg"
   xmlns:sodipodi="http://sodipodi.sourceforge.net/DTD/sodipodi-0.dtd"
   xmlns:inkscape="http://www.inkscape.org/namespaces/inkscape"
   width="14.964mm"
   height="14.567mm"
   viewBox="0 0 14.964 14.567"
   version="1.1"
   id="svg3992"
   inkscape:version="0.92.3 (2405546, 2018-03-11)"
   sodipodi:docname="bass-clef.svg">
  <defs
     id="defs3986" />
  <sodipodi:namedview
     id="base"
     pagecolor="#ffffff"
     bordercolor="#666666"
     borderopacity="1.0"
     inkscape:pageopacity="0.0"
     inkscape:pageshadow="2"
     inkscape:zoom="0.35"
     inkscape:cx="400"
     inkscape:cy="560"
     inkscape:document-units="mm"
     inkscape:current-layer="layer1"
     showgrid="false"
     inkscape:window-width="1134"
     inkscape:window-height="722"
     inkscape:window-x="670"
     inkscape:window-y="316"
     inkscape:window-maximized="0" />
  <metadata
     id="metadata3989">
    <rdf:RDF>
      <cc:Work
         rdf:about="">
        <dc:format>image/svg+xml</dc:format>
        <dc:type
           rdf:resource="http://purl.org/dc/dcmitype/StillImage" />
        <dc:title></dc:title>
      </cc:Work>
    </rdf:RDF>
  </metadata>
  <g
     inkscape:label="Layer 1"
     inkscape:groupmode="layer"
     id="layer1"
     transform="translate(0,-282.433)">
    <g
       id="g3984"
       transform="matrix(0.03527778,0,0,-0.03527778,-477.56325,325.05303)">
      <path
         inkscape:connector-curvature="0"
         id="path3969"
         style="fill:#000000;fill-opacity:1;fill-rule:nonzero;stroke:none"
         d="m 13961.4,1127.3 c 0,21 -17.1,38.1 -38.1,38.1 -21,0 -38.1,-17.1 -38.1,-38.1 0,-21.1 17.1,-38.1 38.1,-38.1 21,0 38.1,17 38.1,38.1" />
      <path
         inkscape:connector-curvature="0"
         id="path3971"
         style="fill:#000000;fill-opacity:1;fill-rule:nonzero;stroke:none"
         d="m 13961.4,962.902 c 0,21 -17.1,37.998 -38.1,37.998 -21,0 -38.1,-16.998 -38.1,-37.998 0,-21.101 17.1,-38.101 38.1,-38.101 21,0 38.1,17 38.1,38.101" />
      <path
         inkscape:connector-curvature="0"
         id="path3973"
         style="fill:#000000;fill-opacity:1;fill-rule:nonzero;stroke:none"
         d="m 13792,1154.2 c -24.6,27.3 -54.4,43.9 -86.4,51.1 -6.9,1.6 -17.6,2.9 -26.9,2.8 -0.2,0 -0.5,0 -0.7,0 h -0.1 c -2.8,0.1 -5.7,-0.3 -8.5,-0.6 -0.1,0 -0.1,0 -0.2,0 v 0 c -0.6,-0.1 -1.2,-0.1 -1.8,-0.2 -8.6,-1 -17.2,-2.5 -25.5,-4.7 -2,-0.5 -3.9,-1.1 -5.8,-1.7 -4.9,-1.5 -9.8,-3.3 -14.5,-5.3 -35.6,-15 -71.4,-45.4 -83.8,-101.6 0,0 -5.9,-32.2 20.1,-57.7 15.9,-16.3 40.8,-22.2 63.1,-12.8 29.2,12.3 42.9,46 30.6,75.2 -8.9,21 -28.9,33.8 -50.2,34.8 9.8,10.1 21.8,17.8 34.8,23.3 10.3,4.4 21.2,7.4 32.2,9.1 1.2,0.2 2.4,0.3 3.6,0.4 62,0 110,-71.9 103.3,-130.4 -1.4,-12.4 -3.7,-24.8 -6.8,-36.9 -12.8,-51.098 -36.4,-101 -74,-138.199 -12.8,-12.801 -27.9,-21.301 -43.9,-28.903 -7.3,-3.398 -14.9,-6.496 -21.9,-10.699 -9.5,-5.699 -18.1,-23.199 -1.2,-25.797 3.2,-0.5 6.5,0 9.6,0.899 20.1,5.699 38.4,16.199 55.5,28 5.3,3.699 10.6,7.5 15.7,11.398 60.1,46.199 108.8,113.5 117,190.401 5,45.8 -1.3,92.5 -33.3,128.1" />
    </g>
  </g>
</svg>
