<?xml version="1.0" encoding="iso-8859-1"?>
<!-- Generator: Adobe Illustrator 19.0.0, SVG Export Plug-In . SVG Version: 6.00 Build 0)  -->
<svg version="1.1" id="Capa_1" xmlns="http://www.w3.org/2000/svg" xmlns:xlink="http://www.w3.org/1999/xlink" x="0px" y="0px"
	 viewBox="0 0 512 512" style="enable-background:new 0 0 512 512;" xml:space="preserve">
<g>
	<g>
		<path d="M301.444,380.733c-18.787-39.494-79.337-51.059-134.988-25.794c-32.648,14.835-58.101,40.006-68.087,67.345
			c-6.521,17.839-6.146,35.32,1.093,50.53C111.512,498.155,140.746,512,174.854,512c19.06,0,39.639-4.327,59.595-13.392
			c32.648-14.835,58.101-40.006,68.087-67.345C309.057,413.424,308.682,395.943,301.444,380.733z M286.498,425.408
			c-8.45,23.131-30.548,44.683-59.117,57.657c-47.218,21.458-97.688,13.571-112.506-17.583c-5.224-10.985-5.386-23.899-0.478-37.343
			c8.45-23.131,30.557-44.683,59.117-57.657c17.976-8.168,36.412-12.078,53.185-12.078c27.288,0,50.154,10.371,59.321,29.661
			C291.244,399.05,291.406,411.964,286.498,425.408z"/>
	</g>
</g>
<g>
	<g>
		<path d="M298.61,0c-4.712,0-8.535,3.824-8.535,8.535v401.167c0,4.712,3.824,8.536,8.535,8.536c4.712,0,8.535-3.824,8.535-8.536
			V8.535C307.145,3.824,303.321,0,298.61,0z"/>
	</g>
</g>
<g>
	<g>
		<path d="M362.686,125.949c-54.653-52.945-55.54-116.791-55.54-117.414c0-4.712-3.824-8.535-8.535-8.535
			c-4.712,0-8.535,3.824-8.535,8.535v94.718c0,2.885,0.683,71.502,60.73,129.671c43.335,41.977,49.583,66.449,50.257,75.027
			c0.35,4.456,4.071,7.861,8.501,7.861c0.12,0,0.23,0,0.341-0.008c4.584-0.179,8.203-3.943,8.203-8.527V222.46
			C418.823,215.811,419.353,180.841,362.686,125.949z M401.138,220.582c-0.068,0.444-0.102,0.896-0.102,1.34v43.224
			c-8.399-12.573-20.656-27.348-38.35-44.487c-54.653-52.945-55.54-116.791-55.54-117.414V76.751
			c8.988,19.597,22.713,41.167,43.659,61.455C404.014,189.752,401.146,220.454,401.138,220.582z"/>
	</g>
</g>
<g>
</g>
<g>
</g>
<g>
</g>
<g>
</g>
<g>
</g>
<g>
</g>
<g>
</g>
<g>
</g>
<g>
</g>
<g>
</g>
<g>
</g>
<g>
</g>
<g>
</g>
<g>
</g>
<g>
</g>
</svg>
