<?xml version="1.0" encoding="UTF-8" standalone="no"?>
<!-- Created with Inkscape (http://www.inkscape.org/) -->

<svg
   xmlns:dc="http://purl.org/dc/elements/1.1/"
   xmlns:cc="http://creativecommons.org/ns#"
   xmlns:rdf="http://www.w3.org/1999/02/22-rdf-syntax-ns#"
   xmlns:svg="http://www.w3.org/2000/svg"
   xmlns="http://www.w3.org/2000/svg"
   xmlns:sodipodi="http://sodipodi.sourceforge.net/DTD/sodipodi-0.dtd"
   xmlns:inkscape="http://www.inkscape.org/namespaces/inkscape"
   width="15.222mm"
   height="29.497999mm"
   viewBox="0 0 15.222 29.497998"
   version="1.1"
   id="svg3992"
   inkscape:version="0.92.3 (2405546, 2018-03-11)"
   sodipodi:docname="treble-middle-c.svg">
  <defs
     id="defs3986" />
  <sodipodi:namedview
     id="base"
     pagecolor="#ffffff"
     bordercolor="#666666"
     borderopacity="1.0"
     inkscape:pageopacity="0.0"
     inkscape:pageshadow="2"
     inkscape:zoom="0.35"
     inkscape:cx="400"
     inkscape:cy="560"
     inkscape:document-units="mm"
     inkscape:current-layer="layer1"
     showgrid="false"
     inkscape:window-width="1134"
     inkscape:window-height="722"
     inkscape:window-x="670"
     inkscape:window-y="316"
     inkscape:window-maximized="0" />
  <metadata
     id="metadata3989">
    <rdf:RDF>
      <cc:Work
         rdf:about="">
        <dc:format>image/svg+xml</dc:format>
        <dc:type
           rdf:resource="http://purl.org/dc/dcmitype/StillImage" />
        <dc:title></dc:title>
      </cc:Work>
    </rdf:RDF>
  </metadata>
  <g
     inkscape:label="Layer 1"
     inkscape:groupmode="layer"
     id="layer1"
     transform="translate(0,-267.502)">
    <g
       transform="matrix(0.03527778,0,0,-0.03527778,-183.55805,539.60447)"
       id="g4307">
      <path
         inkscape:connector-curvature="0"
         id="path3791"
         style="fill:#000000;fill-opacity:1;fill-rule:nonzero;stroke:none"
         d="m 5632.3,6963.42 h -426.66 c -1.34,0 -2.42,1.08 -2.42,2.41 v 26.81 c 0,1.33 1.08,2.41 2.42,2.41 h 426.66 c 1.34,0 2.42,-1.08 2.42,-2.41 v -26.81 c 0,-1.33 -1.08,-2.41 -2.42,-2.41" />
      <path
         inkscape:connector-curvature="0"
         id="path3793"
         style="fill:#000000;fill-opacity:1;fill-rule:nonzero;stroke:none"
         d="m 5565.42,7028.56 v 0 679.08 c 0,3.04 -2.46,5.5 -5.5,5.5 h -24.28 c -3.04,0 -5.51,-2.46 -5.51,-5.5 v -623.9 c -35.88,17.85 -90.71,14.6 -142.37,-12.26 -71.77,-37.32 -110.04,-105.85 -85.48,-153.08 24.56,-47.23 102.64,-55.26 174.41,-17.95 59.89,31.15 89,84.18 88.73,128.11" />
    </g>
  </g>
</svg>
