<?xml version="1.0" encoding="UTF-8" standalone="no"?>
<!-- Created with Inkscape (http://www.inkscape.org/) -->

<svg
   xmlns:dc="http://purl.org/dc/elements/1.1/"
   xmlns:cc="http://creativecommons.org/ns#"
   xmlns:rdf="http://www.w3.org/1999/02/22-rdf-syntax-ns#"
   xmlns:svg="http://www.w3.org/2000/svg"
   xmlns="http://www.w3.org/2000/svg"
   xmlns:sodipodi="http://sodipodi.sourceforge.net/DTD/sodipodi-0.dtd"
   xmlns:inkscape="http://www.inkscape.org/namespaces/inkscape"
   width="22.716mm"
   height="60.112999mm"
   viewBox="0 0 22.716 60.112999"
   version="1.1"
   id="svg3992"
   inkscape:version="0.92.3 (2405546, 2018-03-11)"
   sodipodi:docname="treble-clef.svg">
  <defs
     id="defs3986" />
  <sodipodi:namedview
     id="base"
     pagecolor="#ffffff"
     bordercolor="#666666"
     borderopacity="1.0"
     inkscape:pageopacity="0.0"
     inkscape:pageshadow="2"
     inkscape:zoom="0.35"
     inkscape:cx="400"
     inkscape:cy="560"
     inkscape:document-units="mm"
     inkscape:current-layer="layer1"
     showgrid="false"
     inkscape:window-width="1134"
     inkscape:window-height="722"
     inkscape:window-x="670"
     inkscape:window-y="316"
     inkscape:window-maximized="0" />
  <metadata
     id="metadata3989">
    <rdf:RDF>
      <cc:Work
         rdf:about="">
        <dc:format>image/svg+xml</dc:format>
        <dc:type
           rdf:resource="http://purl.org/dc/dcmitype/StillImage" />
        <dc:title></dc:title>
      </cc:Work>
    </rdf:RDF>
  </metadata>
  <g
     inkscape:label="Layer 1"
     inkscape:groupmode="layer"
     id="layer1"
     transform="translate(0,-236.887)">
    <path
       d="m 17.222979,280.45653 -0.2921,-1.53317 c -0.0071,-0.0427 -0.0067,-0.0847 -0.01552,-0.1277 l -1.829506,-8.68363 c 1.164167,0.0621 4.421717,0.62971 5.265914,4.99216 0,0 0.724958,3.28189 -3.128786,5.35234 z M 5.8650864,279.0747 c -1.7304102,-1.46826 -2.9900737,-3.58175 -3.0988,-5.8487 -0.124848,-2.60385 1.237756,-5.05531 2.8705881,-7.08731 1.6591489,-2.0648 3.6422894,-3.86891 5.8541705,-5.32623 0.379942,1.64324 0.759531,3.28683 1.13912,4.93007 0.08008,0.34607 0.157339,0.72249 0.0088,1.04528 -0.161925,0.35172 -0.541866,0.53657 -0.881944,0.72178 -2.4978435,1.36031 -4.0287226,4.09258 -4.0795578,6.91233 -0.019296,1.06397 0.1406877,2.16605 0.7074958,3.06705 0.5666317,0.90064 1.6045744,1.55716 2.662626,1.44321 -0.454625,0.049 -1.1824764,-1.91558 -1.2835118,-2.25001 -0.281658,-0.9331 -0.3394075,-1.93852 -0.1612196,-2.89702 0.3782837,-2.03341 1.9178064,-3.42864 3.9974314,-3.62267 0.747536,3.36867 1.614663,7.36917 2.318455,10.87579 0.0032,0.0176 0.0067,0.0346 0.01023,0.0519 -3.403247,1.08374 -7.3404937,0.29563 -10.0639029,-2.01542 z m 6.7153366,-36.39855 c 1.659467,-2.23661 5.243336,-1.24178 5.499453,1.53106 0,0 0.504825,3.9758 -2.957336,7.9128 -0.562328,0.76553 -1.759303,1.93675 -3.154539,3.19264 L 11.55137,253.3371 c -0.02999,-0.14464 -0.04974,-0.51506 -0.07267,-0.66323 -0.367947,-2.36713 -0.42986,-5.76791 -0.206375,-7.08377 0.296333,-1.74273 1.3081,-2.91395 1.3081,-2.91395 z m 7.286978,25.37143 c -1.148292,-0.89041 -3.056114,-1.25766 -4.45135,-1.32574 -0.733072,-0.0356 -0.823384,0.11465 -1.184981,-0.41769 -0.335844,-0.49424 -0.345369,-1.67076 -0.468489,-2.26483 -0.312208,-1.50495 -0.624769,-3.0099 -0.936977,-4.51485 3.312583,-2.04576 5.795433,-5.39715 6.789913,-9.16129 0.994834,-3.76414 0.490361,-7.90222 -1.379008,-11.31711 -0.595842,-1.09008 -1.548694,-2.22603 -2.788003,-2.15547 -0.927452,0.0529 -1.67005,0.77258 -2.235552,1.50989 -1.792464,2.33538 -2.730747,5.24933 -3.014486,8.18091 -0.2835987,2.92806 0.05719,5.88786 0.623287,8.77711 0.05401,0.27517 0.10915,0.56798 0.0175,0.83256 -0.09924,0.28575 -0.351543,0.49036 -0.592278,0.6738 -3.4911244,2.69664 -7.2489134,5.41303 -9.09507,9.41811 -1.09551604,2.37702 -1.42363464,5.10011 -0.92410134,7.66939 0.5148439,2.64689 1.96934664,5.17984 4.24737374,6.6227 1.4924265,0.94544 3.2485894,1.38465 4.9933225,1.66264 2.2088121,0.35207 4.4930481,0.46496 6.6633371,-0.0751 0.249767,1.32045 0.462139,2.64795 0.625828,3.9818 0.129469,1.05234 0.26035,2.12443 0.308328,3.19087 0.01552,0.34079 -0.01164,0.6731 -0.01164,1.01177 -0.06844,0.69603 -0.34043,1.38289 -0.71508,1.96956 -0.166864,0.26106 -0.358423,0.50659 -0.5715,0.73201 -0.644878,0.68263 -1.456973,1.18781 -2.313517,1.56246 -0.609247,0.2667 -1.266472,0.42968 -1.931811,0.46143 -0.334434,0.0159 -0.670666,-0.001 -1.001113,-0.0554 -0.02688,-0.004 -0.05786,-0.01 -0.08625,-0.0145 1.32267,-0.71437 2.231778,-2.0962 2.231778,-3.70487 0,-2.33468 -1.892512,-4.22698 -4.2270541,-4.22698 -2.3345068,0 -4.2269833,1.8923 -4.2269833,4.22698 0,0.70767 0.1904294,1.36454 0.4978752,1.95051 l -0.024519,-0.007 c 0.059796,0.11501 0.1309158,0.21484 0.1959678,0.32314 0.026175,0.0413 0.047943,0.085 0.075495,0.12489 2.2149151,3.49849 7.0721004,3.30694 7.0721004,3.30694 0.591608,0.0275 1.2192,-0.0991 1.787172,-0.24483 1.269647,-0.32562 2.461331,-0.96203 3.38067,-1.90288 0.438855,-0.44909 0.811741,-0.96062 1.11513,-1.50989 0.249061,-0.4505 0.469195,-0.92216 0.585611,-1.42558 0.161573,-0.69885 0.11042,-1.41287 0.04269,-2.11984 -0.156633,-1.64042 -0.460727,-3.26284 -0.784577,-4.88315 -0.07691,-0.38276 -0.153459,-0.76588 -0.230011,-1.149 -0.136878,-0.68439 -0.273756,-1.36877 -0.410634,-2.05316 -0.0067,-0.0346 -0.01376,-0.0691 -0.02081,-0.10372 0,0 4.066822,-1.18604 4.914194,-4.74451 0,0 1.609725,-5.59188 -2.541763,-8.81168"
       style="fill:#000000;fill-opacity:1;fill-rule:nonzero;stroke:none;stroke-width:0.03527778"
       id="path3783"
       inkscape:connector-curvature="0" />
  </g>
</svg>
